<svg width="64" height="64" viewBox="0 0 64 64" fill="none" xmlns="http://www.w3.org/2000/svg">
  <rect width="64" height="64" rx="12" fill="#4F46E5"/>
  <path d="M32 16C23.1634 16 16 23.1634 16 32C16 40.8366 23.1634 48 32 48C40.8366 48 48 40.8366 48 32C48 23.1634 40.8366 16 32 16Z" fill="white"/>
  <path d="M32 20C25.3726 20 20 25.3726 20 32C20 38.6274 25.3726 44 32 44C38.6274 44 44 38.6274 44 32C44 25.3726 38.6274 20 32 20Z" fill="#4F46E5"/>
  <text x="32" y="36" text-anchor="middle" fill="white" font-family="Arial, sans-serif" font-size="12" font-weight="bold">MCP</text>
  <circle cx="32" cy="32" r="3" fill="white"/>
</svg>
